<svg id="Camada_1" data-name="Camada 1" xmlns="http://www.w3.org/2000/svg" viewBox="0 0 366.38 73.1"><defs><style>.cls-1{font-size:60px;fill:#323366;font-family:ProximaNova-Semibold, Proxima Nova;font-weight:600;}.cls-2{letter-spacing:-0.06em;}.cls-3{fill:#2c2a6c;}</style></defs><title>logocentarq</title><text class="cls-1" transform="translate(92.96 56.24)">CEN<tspan class="cls-2" x="118.74" y="0">T</tspan><tspan x="149.46" y="0">ARQ</tspan></text><path class="cls-3" d="M177.76,328H140.93l-6.63-5.78a1.92,1.92,0,0,0-1.26-.45H106.2c-4,0-7.16,2.79-7.16,6.23v49.83c0,3.43,3.21,6.22,7.16,6.22h71.56c4,0,7.16-2.79,7.16-6.22V334.21C184.92,330.78,181.71,328,177.76,328Zm3.58,49.83a3.37,3.37,0,0,1-3.58,3.11H106.2a3.38,3.38,0,0,1-3.58-3.11V328a3.38,3.38,0,0,1,3.58-3.12h26.1l6.63,5.77a1.88,1.88,0,0,0,1.26.46h37.57a3.37,3.37,0,0,1,3.58,3.11Z" transform="translate(-99.04 -321.76)"/></svg>